<mxfile host="65bd71144e">
    <diagram id="ksJ8OBkkBK5ntvKOhaUa" name="Page-1">
        <mxGraphModel dx="1678" dy="1440" grid="1" gridSize="10" guides="1" tooltips="1" connect="1" arrows="1" fold="1" page="1" pageScale="1" pageWidth="1169" pageHeight="827" math="0" shadow="0">
            <root>
                <mxCell id="0"/>
                <mxCell id="1" parent="0"/>
                <mxCell id="2" value="+ New Meeting / Sign In" style="rounded=0;whiteSpace=wrap;html=1;fillColor=#B266FF;fontColor=#ffffff;strokeColor=#432D57;" parent="1" vertex="1">
                    <mxGeometry x="120" y="425" width="180" height="40" as="geometry"/>
                </mxCell>
                <mxCell id="3" value="Go Meet" style="text;html=1;strokeColor=none;fillColor=none;align=left;verticalAlign=middle;whiteSpace=wrap;rounded=0;fontSize=28;fontStyle=1" parent="1" vertex="1">
                    <mxGeometry x="120" y="340" width="195" height="30" as="geometry"/>
                </mxCell>
                <mxCell id="4" value="Video Meetings for everyone!" style="text;html=1;strokeColor=none;fillColor=none;align=left;verticalAlign=middle;whiteSpace=wrap;rounded=0;" parent="1" vertex="1">
                    <mxGeometry x="120" y="380" width="295" height="20" as="geometry"/>
                </mxCell>
                <mxCell id="5" value="Enter a code or link" style="rounded=0;whiteSpace=wrap;html=1;" parent="1" vertex="1">
                    <mxGeometry x="320" y="425" width="240" height="40" as="geometry"/>
                </mxCell>
                <mxCell id="7" value="Join" style="text;html=1;strokeColor=none;fillColor=none;align=left;verticalAlign=middle;whiteSpace=wrap;rounded=0;fontSize=16;fontColor=#B266FF;" parent="1" vertex="1">
                    <mxGeometry x="580" y="435" width="50" height="20" as="geometry"/>
                </mxCell>
                <mxCell id="9" value="" style="ellipse;whiteSpace=wrap;html=1;aspect=fixed;fontSize=16;fontColor=#B266FF;fillColor=#B266FF;" parent="1" vertex="1">
                    <mxGeometry x="960" y="25" width="40" height="40" as="geometry"/>
                </mxCell>
                <mxCell id="11" value="Username" style="text;html=1;strokeColor=none;fillColor=none;align=left;verticalAlign=middle;whiteSpace=wrap;rounded=0;" parent="1" vertex="1">
                    <mxGeometry x="1020" y="35" width="60" height="20" as="geometry"/>
                </mxCell>
                <mxCell id="12" value="Sign Out" style="text;html=1;strokeColor=none;fillColor=none;align=left;verticalAlign=middle;whiteSpace=wrap;rounded=0;fontColor=#B266FF;" parent="1" vertex="1">
                    <mxGeometry x="1090" y="35" width="50" height="20" as="geometry"/>
                </mxCell>
            </root>
        </mxGraphModel>
    </diagram>
</mxfile>